<?xml version="1.0" standalone="no"?>
<!DOCTYPE svg PUBLIC "-//W3C//DTD SVG 20010904//EN"
 "http://www.w3.org/TR/2001/REC-SVG-20010904/DTD/svg10.dtd">
<svg version="1.0" xmlns="http://www.w3.org/2000/svg"
 width="1024.000000pt" height="1024.000000pt" viewBox="0 0 1024.000000 1024.000000"
 preserveAspectRatio="xMidYMid meet">

<g transform="translate(0.000000,1024.000000) scale(0.100000,-0.100000)"
fill="#000000" stroke="none">
<path d="M7360 6969 c-663 -75 -1234 -481 -1526 -1084 -75 -155 -124 -299
-161 -472 -26 -120 -27 -144 -28 -383 0 -226 3 -268 22 -366 79 -385 250 -716
512 -987 173 -179 321 -288 541 -398 373 -187 818 -244 1231 -158 277 57 552
183 775 355 483 373 764 941 764 1545 0 830 -496 1551 -1265 1839 -265 100
-587 140 -865 109z m440 -1404 l0 -245 245 0 245 0 0 -250 0 -250 -245 0 -245
0 0 -245 0 -245 -250 0 -250 0 0 245 0 245 -240 0 -240 0 0 250 0 250 240 0
240 0 0 245 0 245 250 0 250 0 0 -245z"/>
<path d="M1190 5075 l0 -685 120 0 120 0 0 455 c0 427 1 455 18 455 13 0 41
-69 136 -343 65 -188 136 -393 158 -454 l40 -113 108 0 108 0 52 148 c28 81
99 285 158 454 85 246 111 308 125 308 16 0 17 -28 17 -455 l0 -455 125 0 125
0 0 685 0 685 -172 -2 -171 -3 -172 -500 c-113 -332 -176 -501 -185 -503 -11
-1 -44 84 -129 330 -62 183 -141 411 -173 506 l-60 172 -174 0 -174 0 0 -685z"/>
<path d="M2960 5075 l0 -685 460 0 460 0 0 110 0 110 -330 0 -330 0 2 193 3
192 278 3 277 2 0 105 0 105 -280 0 -280 0 0 165 0 165 320 0 320 0 0 110 0
110 -450 0 -450 0 0 -685z"/>
<path d="M4140 5075 l0 -688 318 6 c281 4 326 7 397 26 209 55 341 171 408
357 61 171 62 418 2 596 -47 138 -142 246 -270 308 -136 65 -189 73 -542 78
l-313 4 0 -687z m639 440 c125 -39 202 -121 238 -250 20 -75 27 -220 14 -302
-41 -264 -184 -361 -521 -351 l-105 3 -3 464 -2 464 162 -6 c112 -3 180 -10
217 -22z"/>
</g>
</svg>
